<?xml version="1.0" standalone="no"?>
<!DOCTYPE svg PUBLIC "-//W3C//DTD SVG 20010904//EN"
 "http://www.w3.org/TR/2001/REC-SVG-20010904/DTD/svg10.dtd">
<svg version="1.0" xmlns="http://www.w3.org/2000/svg"
 width="720.000000pt" height="720.000000pt" viewBox="0 0 720.000000 720.000000"
 preserveAspectRatio="xMidYMid meet">

<g transform="translate(0.000000,720.000000) scale(0.100000,-0.100000)"
fill="#000000" stroke="none">
<path d="M3336 4503 c-5 -19 -186 -977 -186 -987 0 -3 86 -6 191 -6 l190 0 -7
-22 c-4 -13 -15 -52 -25 -88 -10 -36 -30 -105 -44 -155 -15 -49 -32 -110 -40
-135 -7 -25 -36 -121 -64 -214 -29 -93 -50 -175 -49 -183 2 -7 171 229 376
525 l373 537 -189 5 -190 5 114 350 c62 193 114 358 114 368 0 16 -20 17 -279
17 -258 0 -280 -1 -285 -17z"/>
</g>
</svg>
